<svg width="196" height="46" viewBox="0 0 196 46" fill="none" xmlns="http://www.w3.org/2000/svg">
<path d="M60.6671 34.7325C57.2871 34.7325 54.7071 33.7925 52.9271 31.9125C51.1671 30.0325 50.2871 27.3625 50.2871 23.9025C50.2871 22.1825 50.5571 20.6525 51.0971 19.3125C51.6371 17.9525 52.3771 16.8125 53.3171 15.8925C54.2571 14.9525 55.3771 14.2425 56.6771 13.7625C57.9771 13.2825 59.3871 13.0425 60.9071 13.0425C61.7871 13.0425 62.5871 13.1125 63.3071 13.2525C64.0271 13.3725 64.6571 13.5225 65.1971 13.7025C65.7371 13.8625 66.1871 14.0325 66.5471 14.2125C66.9071 14.3925 67.1671 14.5325 67.3271 14.6325L65.9771 18.4125C65.3371 18.0725 64.5871 17.7825 63.7271 17.5425C62.8871 17.3025 61.9271 17.1825 60.8471 17.1825C60.1271 17.1825 59.4171 17.3025 58.7171 17.5425C58.0371 17.7825 57.4271 18.1725 56.8871 18.7125C56.3671 19.2325 55.9471 19.9125 55.6271 20.7525C55.3071 21.5925 55.1471 22.6125 55.1471 23.8125C55.1471 24.7725 55.2471 25.6725 55.4471 26.5125C55.6671 27.3325 56.0071 28.0425 56.4671 28.6425C56.9471 29.2425 57.5671 29.7225 58.3271 30.0825C59.0871 30.4225 60.0071 30.5925 61.0871 30.5925C61.7671 30.5925 62.3771 30.5525 62.9171 30.4725C63.4571 30.3925 63.9371 30.3025 64.3571 30.2025C64.7771 30.0825 65.1471 29.9525 65.4671 29.8125C65.7871 29.6725 66.0771 29.5425 66.3371 29.4225L67.6271 33.1725C66.9671 33.5725 66.0371 33.9325 64.8371 34.2525C63.6371 34.5725 62.2471 34.7325 60.6671 34.7325ZM79.8502 22.4925C79.4502 22.3925 78.9802 22.2925 78.4402 22.1925C77.9002 22.0725 77.3202 22.0125 76.7002 22.0125C76.4202 22.0125 76.0802 22.0425 75.6802 22.1025C75.3002 22.1425 75.0102 22.1925 74.8102 22.2525V34.3125H70.3402V19.3725C71.1402 19.0925 72.0802 18.8325 73.1602 18.5925C74.2602 18.3325 75.4802 18.2025 76.8202 18.2025C77.0602 18.2025 77.3502 18.2225 77.6902 18.2625C78.0302 18.2825 78.3702 18.3225 78.7102 18.3825C79.0502 18.4225 79.3902 18.4825 79.7302 18.5625C80.0702 18.6225 80.3602 18.7025 80.6002 18.8025L79.8502 22.4925ZM97.944 18.5325C97.044 21.5725 96.104 24.4225 95.124 27.0825C94.144 29.7425 93.074 32.3225 91.914 34.8225C91.494 35.7225 91.074 36.4825 90.654 37.1025C90.234 37.7425 89.774 38.2625 89.274 38.6625C88.774 39.0825 88.204 39.3825 87.564 39.5625C86.944 39.7625 86.214 39.8625 85.374 39.8625C84.674 39.8625 84.024 39.7925 83.424 39.6525C82.844 39.5325 82.364 39.3925 81.984 39.2325L82.764 35.6625C83.224 35.8225 83.634 35.9325 83.994 35.9925C84.354 36.0525 84.734 36.0825 85.134 36.0825C85.934 36.0825 86.544 35.8625 86.964 35.4225C87.404 35.0025 87.774 34.4125 88.074 33.6525C87.054 31.6525 86.034 29.4125 85.014 26.9325C83.994 24.4325 83.034 21.6325 82.134 18.5325H86.874C87.074 19.3125 87.304 20.1625 87.564 21.0825C87.844 21.9825 88.134 22.9025 88.434 23.8425C88.734 24.7625 89.034 25.6625 89.334 26.5425C89.654 27.4225 89.954 28.2225 90.234 28.9425C90.494 28.2225 90.764 27.4225 91.044 26.5425C91.324 25.6625 91.594 24.7625 91.854 23.8425C92.134 22.9025 92.394 21.9825 92.634 21.0825C92.894 20.1625 93.124 19.3125 93.324 18.5325H97.944ZM110.45 26.5425C110.45 25.1625 110.14 24.0625 109.52 23.2425C108.9 22.4025 107.98 21.9825 106.76 21.9825C106.36 21.9825 105.99 22.0025 105.65 22.0425C105.31 22.0625 105.03 22.0925 104.81 22.1325V30.2025C105.09 30.3825 105.45 30.5325 105.89 30.6525C106.35 30.7725 106.81 30.8325 107.27 30.8325C109.39 30.8325 110.45 29.4025 110.45 26.5425ZM115.01 26.4225C115.01 27.6425 114.86 28.7525 114.56 29.7525C114.26 30.7525 113.82 31.6125 113.24 32.3325C112.66 33.0525 111.94 33.6125 111.08 34.0125C110.22 34.4125 109.23 34.6125 108.11 34.6125C107.49 34.6125 106.91 34.5525 106.37 34.4325C105.83 34.3125 105.31 34.1425 104.81 33.9225V39.8625H100.34V19.0725C100.74 18.9525 101.2 18.8425 101.72 18.7425C102.24 18.6225 102.78 18.5225 103.34 18.4425C103.92 18.3625 104.5 18.3025 105.08 18.2625C105.68 18.2025 106.25 18.1725 106.79 18.1725C108.09 18.1725 109.25 18.3725 110.27 18.7725C111.29 19.1525 112.15 19.7025 112.85 20.4225C113.55 21.1225 114.08 21.9825 114.44 23.0025C114.82 24.0225 115.01 25.1625 115.01 26.4225ZM134.166 13.5225V17.5125H127.896V34.3125H123.216V17.5125H116.946V13.5225H134.166ZM149.378 26.3925C149.378 27.6325 149.198 28.7725 148.838 29.8125C148.478 30.8325 147.958 31.7125 147.278 32.4525C146.598 33.1725 145.778 33.7325 144.818 34.1325C143.878 34.5325 142.818 34.7325 141.638 34.7325C140.478 34.7325 139.418 34.5325 138.458 34.1325C137.518 33.7325 136.708 33.1725 136.028 32.4525C135.348 31.7125 134.818 30.8325 134.438 29.8125C134.058 28.7725 133.868 27.6325 133.868 26.3925C133.868 25.1525 134.058 24.0225 134.438 23.0025C134.838 21.9825 135.378 21.1125 136.058 20.3925C136.758 19.6725 137.578 19.1125 138.518 18.7125C139.478 18.3125 140.518 18.1125 141.638 18.1125C142.778 18.1125 143.818 18.3125 144.758 18.7125C145.718 19.1125 146.538 19.6725 147.218 20.3925C147.898 21.1125 148.428 21.9825 148.808 23.0025C149.188 24.0225 149.378 25.1525 149.378 26.3925ZM144.818 26.3925C144.818 25.0125 144.538 23.9325 143.978 23.1525C143.438 22.3525 142.658 21.9525 141.638 21.9525C140.618 21.9525 139.828 22.3525 139.268 23.1525C138.708 23.9325 138.428 25.0125 138.428 26.3925C138.428 27.7725 138.708 28.8725 139.268 29.6925C139.828 30.4925 140.618 30.8925 141.638 30.8925C142.658 30.8925 143.438 30.4925 143.978 29.6925C144.538 28.8725 144.818 27.7725 144.818 26.3925ZM162.95 26.5425C162.95 25.1625 162.64 24.0625 162.02 23.2425C161.4 22.4025 160.48 21.9825 159.26 21.9825C158.86 21.9825 158.49 22.0025 158.15 22.0425C157.81 22.0625 157.53 22.0925 157.31 22.1325V30.2025C157.59 30.3825 157.95 30.5325 158.39 30.6525C158.85 30.7725 159.31 30.8325 159.77 30.8325C161.89 30.8325 162.95 29.4025 162.95 26.5425ZM167.51 26.4225C167.51 27.6425 167.36 28.7525 167.06 29.7525C166.76 30.7525 166.32 31.6125 165.74 32.3325C165.16 33.0525 164.44 33.6125 163.58 34.0125C162.72 34.4125 161.73 34.6125 160.61 34.6125C159.99 34.6125 159.41 34.5525 158.87 34.4325C158.33 34.3125 157.81 34.1425 157.31 33.9225V39.8625H152.84V19.0725C153.24 18.9525 153.7 18.8425 154.22 18.7425C154.74 18.6225 155.28 18.5225 155.84 18.4425C156.42 18.3625 157 18.3025 157.58 18.2625C158.18 18.2025 158.75 18.1725 159.29 18.1725C160.59 18.1725 161.75 18.3725 162.77 18.7725C163.79 19.1525 164.65 19.7025 165.35 20.4225C166.05 21.1225 166.58 21.9825 166.94 23.0025C167.32 24.0225 167.51 25.1625 167.51 26.4225ZM175.416 34.3125H170.946V18.5325H175.416V34.3125ZM175.836 13.9725C175.836 14.7925 175.566 15.4425 175.026 15.9225C174.506 16.3825 173.886 16.6125 173.166 16.6125C172.446 16.6125 171.816 16.3825 171.276 15.9225C170.756 15.4425 170.496 14.7925 170.496 13.9725C170.496 13.1525 170.756 12.5125 171.276 12.0525C171.816 11.5725 172.446 11.3325 173.166 11.3325C173.886 11.3325 174.506 11.5725 175.026 12.0525C175.566 12.5125 175.836 13.1525 175.836 13.9725ZM179.618 19.0725C180.378 18.8525 181.358 18.6525 182.558 18.4725C183.758 18.2725 185.018 18.1725 186.338 18.1725C187.678 18.1725 188.788 18.3525 189.668 18.7125C190.568 19.0525 191.278 19.5425 191.798 20.1825C192.318 20.8225 192.688 21.5825 192.908 22.4625C193.128 23.3425 193.238 24.3225 193.238 25.4025V34.3125H188.768V25.9425C188.768 24.5025 188.578 23.4825 188.198 22.8825C187.818 22.2825 187.108 21.9825 186.068 21.9825C185.748 21.9825 185.408 22.0025 185.048 22.0425C184.688 22.0625 184.368 22.0925 184.088 22.1325V34.3125H179.618V19.0725Z" fill="#212326"/>
<path d="M40.9053 20.7932C40.8787 16.7691 39.6593 12.8275 37.4015 9.46686C35.1437 6.10618 31.9489 3.47734 28.2209 1.91278C24.493 0.348217 20.3994 -0.0817933 16.4579 0.677123C12.5163 1.43604 8.90386 3.3498 6.07727 6.17639C3.25068 9.00298 1.33692 12.6155 0.578002 16.557C-0.180914 20.4985 0.249096 24.5921 1.81366 28.32C3.37822 32.048 6.00706 35.2428 9.36774 37.5007C12.7284 39.7585 16.67 40.9778 20.6941 41.0044L20.6305 31.408C18.5045 31.3939 16.422 30.7497 14.6464 29.5568C12.8708 28.3639 11.4819 26.6759 10.6553 24.7063C9.8287 22.7367 9.60151 20.574 10.0025 18.4915C10.4034 16.409 11.4145 14.5004 12.9079 13.0071C14.4013 11.5137 16.3099 10.5026 18.3924 10.1016C20.4748 9.70063 22.6376 9.92782 24.6072 10.7544C26.5768 11.5811 28.2648 12.97 29.4577 14.7455C30.6505 16.5211 31.2948 18.6036 31.3088 20.7296L40.9053 20.7932Z" fill="#155ED7"/>
<path d="M40.9053 20.7932C40.8696 15.3971 38.6917 10.2078 34.8508 6.36695C31.01 2.52607 25.8207 0.348205 20.4246 0.312468C15.0285 0.276731 9.86761 2.38605 6.07727 6.17639C2.28693 9.96673 0.177612 15.1276 0.213347 20.5237L9.80981 20.5873C9.79093 17.7363 10.9054 15.0096 12.9079 13.0071C14.9105 11.0045 17.6372 9.89005 20.4881 9.90894C23.3391 9.92782 26.0808 11.0785 28.11 13.1077C30.1393 15.137 31.29 17.8787 31.3088 20.7296L40.9053 20.7932Z" fill="#7782FF"/>
<path d="M40.9053 20.7932C40.8876 18.1213 40.3438 15.4721 39.305 12.9969C38.2662 10.5216 36.7526 8.26876 34.8508 6.36695C32.949 4.46514 30.6962 2.95161 28.2209 1.91278C25.7457 0.873949 23.0965 0.330163 20.4246 0.312468L20.4881 9.90894C21.8998 9.91828 23.2994 10.2056 24.6072 10.7544C25.915 11.3033 27.1052 12.1029 28.11 13.1077C29.1148 14.1125 29.9145 15.3028 30.4633 16.6106C31.0122 17.9183 31.2995 19.318 31.3088 20.7296L40.9053 20.7932Z" fill="#27CAEA"/>
<path d="M27.0948 45.6877L27.0948 28.0334H33.8203V45.6877H27.0948Z" fill="#FF418C"/>
<path d="M20.3693 22.9893H40.966V29.7147H20.3693V22.9893Z" fill="#FEBA66"/>
</svg>
